<svg width="216" height="61" viewBox="0 0 216 61" fill="none" xmlns="http://www.w3.org/2000/svg">
<g filter="url(#filter0_d_37_90)">
<path d="M31.5 35V33.5H30V32H33V33.5H37.5V30.5H31.5V29H30V26H31.5V24.5H39V26H40.5V27.5H37.5V26H33V29H39V30.5H40.5V33.5H39V35H31.5ZM46.5 35V26H43.5V24.5H52.5V26H49.5V35H46.5ZM54 35V27.5H55.5V26H57V24.5H61.5V26H63V27.5H64.5V35H61.5V32H57V35H54ZM57 30.5H61.5V27.5H60V26H58.5V27.5H57V30.5ZM66 35V24.5H75V26H76.5V30.5H73.5V32H75V33.5H76.5V35H72V33.5H70.5V32H69V35H66ZM69 30.5H72V29H73.5V26H69V30.5ZM82.5 35V26H79.5V24.5H88.5V26H85.5V35H82.5ZM102 35V24.5H111V26H112.5V30.5H111V32H105V35H102ZM105 30.5H109.5V26H105V30.5ZM115.5 35V24.5H118.5V33.5H124.5V35H115.5ZM126 35V27.5H127.5V26H129V24.5H133.5V26H135V27.5H136.5V35H133.5V32H129V35H126ZM129 30.5H133.5V27.5H132V26H130.5V27.5H129V30.5ZM142.5 35V30.5H141V29H139.5V24.5H142.5V29H145.5V24.5H148.5V29H147V30.5H145.5V35H142.5ZM151.5 35V33.5H154.5V26H151.5V24.5H160.5V26H157.5V33.5H160.5V35H151.5ZM162 35V24.5H165V26H166.5V27.5H168V29H169.5V24.5H172.5V35H169.5V32H168V30.5H166.5V29H165V35H162ZM177 35V33.5H175.5V32H174V27.5H175.5V26H177V24.5H184.5V26H178.5V27.5H177V32H178.5V33.5H181.5V30.5H180V29H184.5V35H177Z" fill="white"/>
<rect x="11" y="11.5" width="194" height="38" rx="19" stroke="white" stroke-width="2" stroke-linejoin="round"/>
</g>
<defs>
<filter id="filter0_d_37_90" x="0" y="0.5" width="216" height="60" filterUnits="userSpaceOnUse" color-interpolation-filters="sRGB">
<feFlood flood-opacity="0" result="BackgroundImageFix"/>
<feColorMatrix in="SourceAlpha" type="matrix" values="0 0 0 0 0 0 0 0 0 0 0 0 0 0 0 0 0 0 127 0" result="hardAlpha"/>
<feOffset/>
<feGaussianBlur stdDeviation="5"/>
<feColorMatrix type="matrix" values="0 0 0 0 0 0 0 0 0 1 0 0 0 0 1 0 0 0 1 0"/>
<feBlend mode="normal" in2="BackgroundImageFix" result="effect1_dropShadow_37_90"/>
<feBlend mode="normal" in="SourceGraphic" in2="effect1_dropShadow_37_90" result="shape"/>
</filter>
</defs>
</svg>
