<svg width="24" height="24" viewBox="0 0 24 24" fill="none" xmlns="http://www.w3.org/2000/svg">
<path id="Vector" d="M4.00021 21.8322C8.58721 22.2122 6.94421 17.3392 11.1882 17.2942L13.0262 18.8282C13.4842 24.3662 6.71121 25.6012 4.00021 21.8322ZM18.0652 14.7172C19.4922 12.4782 23.9122 4.96817 23.9122 4.96817C24.2642 4.34517 23.4822 3.69517 22.9362 4.15517C22.9362 4.15517 16.3642 9.86917 14.4252 11.6802C12.8932 13.1122 12.8862 13.7662 12.3902 16.1272L14.0702 17.5272C16.2972 16.6122 16.9382 16.4882 18.0652 14.7172ZM6.06621 18.5932C6.73221 17.4592 7.81421 15.6162 10.5132 15.3312C10.9472 13.2442 11.1202 12.0312 13.0602 10.2192C14.4332 8.93717 17.9982 5.81017 20.0812 3.99017C19.0812 1.78217 15.9402 -0.0328317 11.9032 0.000168347C5.27921 0.0551683 -0.0527914 5.46517 0.000208609 12.0922C0.0232086 15.0032 1.08121 17.6632 2.82021 19.7272C4.43821 20.1562 5.19621 20.0752 6.06621 18.5932ZM13.0182 2.75817C14.1202 2.75217 15.0232 3.63917 15.0342 4.74117C15.0382 5.84417 14.1522 6.75017 13.0482 6.75717C11.9432 6.76617 11.0402 5.87717 11.0342 4.77317C11.0212 3.66717 11.9102 2.76717 13.0182 2.75817ZM7.02121 4.75917C8.12321 4.74917 9.02921 5.63617 9.03321 6.74217C9.04521 7.84817 8.15321 8.74717 7.05321 8.75817C5.94721 8.76517 5.04421 7.87717 5.03721 6.77017C5.02821 5.66717 5.91421 4.76617 7.02121 4.75917ZM5.01821 10.7572C6.12421 10.7502 7.02821 11.6392 7.03421 12.7422C7.04421 13.8462 6.15421 14.7502 5.04821 14.7572C3.94321 14.7652 3.04321 13.8772 3.03721 12.7722C3.02621 11.6672 3.91621 10.7682 5.01821 10.7572ZM15.0492 19.2892C15.0702 21.5282 14.1672 23.0072 13.3672 23.8762L13.3212 23.9202C18.5762 23.3292 22.3832 19.6162 19.5872 16.0312C18.2142 18.0782 17.0532 18.4732 15.0492 19.2892Z" fill="white"/>
</svg>
