<svg width="26" height="26" viewBox="0 0 26 26" fill="none" xmlns="http://www.w3.org/2000/svg">
<path id="Vector" d="M1.48927 10.4795C1.27237 10.1542 1.05546 9.72057 0.838547 9.39531C0.513183 8.85322 -0.245998 7.44377 0.0793653 5.49223C0.513183 2.89018 2.57382 1.48074 3.00764 1.15548C4.63446 0.0712902 7.34582 -0.579223 9.51491 0.721803C10.2741 1.15548 10.8164 1.80599 11.1417 2.23967C10.3825 3.32386 9.94873 4.51646 9.73182 5.81749C9.62337 5.81749 9.51491 5.81749 9.40646 5.81749C8.32191 5.92591 6.912 5.92591 5.17673 6.90168C3.65837 7.87745 2.46536 9.07006 1.48927 10.4795ZM10.9248 14.2742C11.3586 14.1657 11.9009 14.1657 12.3347 14.0573C10.7079 12.5395 9.73182 10.4795 9.51491 8.2027C9.51491 8.2027 9.51491 8.2027 9.40646 8.2027C8.43036 8.31112 7.45427 8.31112 6.15282 9.07006C4.95982 9.72057 3.98373 10.6963 3.11609 11.9974L2.68227 12.7563C3.54991 14.1657 4.41755 15.6836 5.28518 17.0931C5.61055 16.7678 6.04436 16.3341 6.47818 16.0089C8.21346 14.7078 9.51491 14.491 10.9248 14.2742ZM19.7096 16.551C19.3843 16.551 18.9505 16.6594 18.6251 16.6594C16.8898 16.6594 15.3715 16.2257 13.9615 15.3583C12.9855 15.792 12.0094 15.9004 11.1417 16.0089C9.94873 16.2257 8.86418 16.3341 7.56273 17.3099C7.23736 17.5267 6.912 17.852 6.58664 18.1772L6.15282 18.5025C6.80355 19.5867 7.45427 20.7793 8.105 21.8635C8.21346 21.9719 8.21346 22.0803 8.32191 22.2972C8.75573 22.9477 8.86418 23.1645 9.08109 23.3813C9.51491 23.7066 10.1656 23.4898 10.5995 23.3813C13.4193 21.6466 16.1306 20.0204 18.9505 18.2857C19.0589 18.2857 19.4927 18.0688 19.6012 17.6351C19.8181 17.3099 19.7096 16.8762 19.6012 16.7678C19.8181 16.6594 19.8181 16.551 19.7096 16.551ZM16.8898 20.5625L14.1785 22.1887C14.8292 23.2729 15.3715 24.2487 16.0222 25.3329C16.1306 25.4413 16.456 25.875 17.1067 25.9834C17.7575 26.0918 18.5166 25.6581 18.842 25.0076C19.1674 24.3571 18.842 23.7066 18.842 23.5982C18.1913 22.7308 17.5405 21.6466 16.8898 20.5625ZM18.6251 0.0712902C14.5038 0.0712902 11.2502 3.32386 11.2502 7.44377C11.2502 11.5637 14.5038 14.8163 18.6251 14.8163C22.7464 14.8163 26 11.5637 26 7.44377C26 3.32386 22.7464 0.0712902 18.6251 0.0712902Z" fill="white"/>
</svg>
