<svg width="15" height="14" viewBox="0 0 15 14" fill="none" xmlns="http://www.w3.org/2000/svg">
<path id="icon-edit" d="M6.975 2.80247C7.2536 2.80247 7.5 3.04887 7.5 3.32747C7.5 3.61727 7.2648 3.85247 6.975 3.85247C5.9215 3.85247 1.55 3.85247 1.55 3.85247V12.2525H13.45V6.12747C13.45 5.83767 13.6852 5.60247 13.975 5.60247C14.2648 5.60247 14.5 5.83767 14.5 6.12747V12.6025C14.5 13.0372 14.1346 13.3025 13.8 13.3025H1.2C0.864 13.3025 0.5 13.0372 0.5 12.6025V3.50247C0.5 3.16577 0.766 2.80247 1.2 2.80247H6.975ZM5.5673 7.37067C4.8358 9.47277 4.7007 9.78567 4.7007 10.0587C4.7007 10.3674 4.9702 10.4969 5.1396 10.4969C5.33 10.4969 5.9152 10.2862 7.8199 9.62257L5.5673 7.37067ZM6.1889 6.74837L8.4429 9.00237L14.3285 3.12237C14.4426 3.00827 14.5 2.85847 14.5 2.70797C14.5 2.55887 14.4426 2.40907 14.3285 2.29427C13.9225 1.88967 13.3079 1.27437 12.9012 0.869071C12.7871 0.754971 12.6373 0.697571 12.4875 0.697571C12.3384 0.697571 12.1879 0.754971 12.0731 0.869071L6.1889 6.74837Z" fill="white"/>
</svg>
