<svg width="198" height="66" viewBox="0 0 198 66" fill="none" xmlns="http://www.w3.org/2000/svg">
<g filter="url(#filter0_d_1_89)">
<path d="M21.4893 30.4795C21.2724 30.1542 21.0555 29.7206 20.8385 29.3953C20.5132 28.8532 19.754 27.4438 20.0794 25.4922C20.5132 22.8902 22.5738 21.4807 23.0076 21.1555C24.6345 20.0713 27.3458 19.4208 29.5149 20.7218C30.2741 21.1555 30.8164 21.806 31.1417 22.2397C30.3825 23.3239 29.9487 24.5165 29.7318 25.8175C29.6234 25.8175 29.5149 25.8175 29.4065 25.8175C28.3219 25.9259 26.912 25.9259 25.1767 26.9017C23.6584 27.8774 22.4654 29.0701 21.4893 30.4795ZM30.9248 34.2742C31.3586 34.1657 31.9009 34.1657 32.3347 34.0573C30.7079 32.5395 29.7318 30.4795 29.5149 28.2027C29.5149 28.2027 29.5149 28.2027 29.4065 28.2027C28.4304 28.3111 27.4543 28.3111 26.1528 29.0701C24.9598 29.7206 23.9837 30.6963 23.1161 31.9974L22.6823 32.7563C23.5499 34.1657 24.4175 35.6836 25.2852 37.0931C25.6105 36.7678 26.0444 36.3341 26.4782 36.0089C28.2135 34.7078 29.5149 34.491 30.9248 34.2742ZM39.7096 36.551C39.3843 36.551 38.9505 36.6594 38.6251 36.6594C36.8898 36.6594 35.3715 36.2257 33.9615 35.3583C32.9855 35.792 32.0094 35.9004 31.1417 36.0089C29.9487 36.2257 28.8642 36.3341 27.5627 37.3099C27.2374 37.5267 26.912 37.852 26.5866 38.1772L26.1528 38.5025C26.8035 39.5867 27.4543 40.7793 28.105 41.8635C28.2135 41.9719 28.2135 42.0803 28.3219 42.2972C28.7557 42.9477 28.8642 43.1645 29.0811 43.3813C29.5149 43.7066 30.1656 43.4898 30.5995 43.3813C33.4193 41.6466 36.1306 40.0204 38.9505 38.2857C39.0589 38.2857 39.4927 38.0688 39.6012 37.6351C39.8181 37.3099 39.7096 36.8762 39.6012 36.7678C39.8181 36.6594 39.8181 36.551 39.7096 36.551ZM36.8898 40.5625L34.1785 42.1887C34.8292 43.2729 35.3715 44.2487 36.0222 45.3329C36.1306 45.4413 36.456 45.875 37.1067 45.9834C37.7575 46.0918 38.5166 45.6581 38.842 45.0076C39.1674 44.3571 38.842 43.7066 38.842 43.5982C38.1913 42.7308 37.5405 41.6466 36.8898 40.5625ZM38.6251 20.0713C34.5038 20.0713 31.2502 23.3239 31.2502 27.4438C31.2502 31.5637 34.5038 34.8163 38.6251 34.8163C42.7464 34.8163 46 31.5637 46 27.4438C46 23.3239 42.7464 20.0713 38.6251 20.0713Z" fill="white"/>
<rect x="11" y="11" width="44" height="44" rx="22" stroke="white" stroke-width="2"/>
</g>
<path d="M67.25 24.75V23.5H66V16H68.5V23.5H72.25V16H74.75V23.5H73.5V24.75H67.25ZM77.25 24.75V16H79.75V23.5H84.75V24.75H77.25ZM89.75 24.75V17.25H87.25V16H94.75V17.25H92.25V24.75H89.75ZM97.25 24.75V23.5H99.75V17.25H97.25V16H104.75V17.25H102.25V23.5H104.75V24.75H97.25ZM106 24.75V16H108.5V17.25H109.75V18.5H111V17.25H112.25V16H114.75V24.75H112.25V19.75H111V22.25H109.75V19.75H108.5V24.75H106ZM116 24.75V18.5H117.25V17.25H118.5V16H122.25V17.25H123.5V18.5H124.75V24.75H122.25V22.25H118.5V24.75H116ZM118.5 21H122.25V18.5H121V17.25H119.75V18.5H118.5V21ZM129.75 24.75V17.25H127.25V16H134.75V17.25H132.25V24.75H129.75ZM136 24.75V16H144.75V17.25H138.5V19.75H143.5V21H138.5V23.5H144.75V24.75H136ZM66 43.5V26H81V28.5H83.5V36H81V38.5H71V43.5H66ZM71 36H78.5V28.5H71V36ZM88.5 43.5V41H86V28.5H88.5V26H101V28.5H103.5V41H101V43.5H88.5ZM91 41H98.5V28.5H91V41ZM106 43.5V26H111V28.5H113.5V31H116V33.5H118.5V26H123.5V43.5H118.5V38.5H116V36H113.5V33.5H111V43.5H106ZM131 43.5V41H128.5V38.5H126V31H128.5V28.5H131V26H143.5V28.5H133.5V31H131V38.5H133.5V41H138.5V36H136V33.5H143.5V43.5H131ZM68.25 51.25V46.75H66.75V46H71.25V46.75H69.75V51.25H68.25ZM72 51.25V46H76.5V46.75H77.25V49H75.75V49.75H76.5V50.5H77.25V51.25H75V50.5H74.25V49.75H73.5V51.25H72ZM73.5 49H75V48.25H75.75V46.75H73.5V49ZM78 51.25V47.5H78.75V46.75H79.5V46H81.75V46.75H82.5V47.5H83.25V51.25H81.75V49.75H79.5V51.25H78ZM79.5 49H81.75V47.5H81V46.75H80.25V47.5H79.5V49ZM84 51.25V46H85.5V46.75H86.25V47.5H87V48.25H87.75V46H89.25V51.25H87.75V49.75H87V49H86.25V48.25H85.5V51.25H84ZM90.75 51.25V50.5H90V49.75H91.5V50.5H93.75V49H90.75V48.25H90V46.75H90.75V46H94.5V46.75H95.25V47.5H93.75V46.75H91.5V48.25H94.5V49H95.25V50.5H94.5V51.25H90.75ZM97.5 51.25V50.5H96.75V49.75H96V47.5H96.75V46.75H97.5V46H100.5V46.75H101.25V47.5H99.75V46.75H98.25V47.5H97.5V49.75H98.25V50.5H99.75V49.75H101.25V50.5H100.5V51.25H97.5ZM102 51.25V46H107.25V46.75H103.5V48.25H106.5V49H103.5V50.5H107.25V51.25H102ZM108 51.25V46H109.5V46.75H110.25V47.5H111V48.25H111.75V46H113.25V51.25H111.75V49.75H111V49H110.25V48.25H109.5V51.25H108ZM114 51.25V46H117.75V46.75H118.5V47.5H119.25V49.75H118.5V50.5H117.75V51.25H114ZM115.5 50.5H117V49.75H117.75V47.5H117V46.75H115.5V50.5ZM120 51.25V46H125.25V46.75H121.5V48.25H124.5V49H121.5V50.5H125.25V51.25H120ZM126 51.25V46H127.5V46.75H128.25V47.5H129V48.25H129.75V46H131.25V51.25H129.75V49.75H129V49H128.25V48.25H127.5V51.25H126ZM133.5 51.25V50.5H132.75V49.75H132V47.5H132.75V46.75H133.5V46H136.5V46.75H137.25V47.5H135.75V46.75H134.25V47.5H133.5V49.75H134.25V50.5H135.75V49.75H137.25V50.5H136.5V51.25H133.5ZM138 51.25V46H143.25V46.75H139.5V48.25H142.5V49H139.5V50.5H143.25V51.25H138Z" fill="white"/>
<defs>
<filter id="filter0_d_1_89" x="0" y="0" width="66" height="66" filterUnits="userSpaceOnUse" color-interpolation-filters="sRGB">
<feFlood flood-opacity="0" result="BackgroundImageFix"/>
<feColorMatrix in="SourceAlpha" type="matrix" values="0 0 0 0 0 0 0 0 0 0 0 0 0 0 0 0 0 0 127 0" result="hardAlpha"/>
<feOffset/>
<feGaussianBlur stdDeviation="5"/>
<feColorMatrix type="matrix" values="0 0 0 0 1 0 0 0 0 0 0 0 0 0 1 0 0 0 1 0"/>
<feBlend mode="normal" in2="BackgroundImageFix" result="effect1_dropShadow_1_89"/>
<feBlend mode="normal" in="SourceGraphic" in2="effect1_dropShadow_1_89" result="shape"/>
</filter>
</defs>
</svg>
