<?xml version="1.0" encoding="utf-8"?>
<!-- Generator: Adobe Illustrator 27.8.1, SVG Export Plug-In . SVG Version: 6.00 Build 0)  -->
<svg version="1.2" baseProfile="tiny" id="Calque_1"
	 xmlns="http://www.w3.org/2000/svg" xmlns:xlink="http://www.w3.org/1999/xlink" x="0px" y="0px" viewBox="0 0 166.4 77.5"
	 overflow="visible" xml:space="preserve">
<path d="M2.8,19.5v-2.8H0V0h5.6v16.8H14V0h5.6v16.8h-2.8v2.8H2.8z M25.1,19.5V0h5.6v16.8h11.2v2.8H25.1z M47.5,19.5V2.8h-5.6V0h16.8
	v2.8H53v16.8H47.5z M64.2,19.5v-2.8h5.6v-14h-5.6V0H81v2.8h-5.6v14H81v2.8H64.2z M83.8,19.5V0h5.6v2.8h2.8v2.8h2.8V2.8h2.8V0h5.6
	v19.5h-5.6V8.4h-2.8V14h-2.8V8.4h-2.8v11.2H83.8z M106.1,19.5v-14h2.8V2.8h2.8V0h8.4v2.8h2.8v2.8h2.8v14h-5.6V14h-8.4v5.6H106.1z
	 M111.7,11.2h8.4V5.6h-2.8V2.8h-2.8v2.8h-2.8V11.2z M132.9,19.5V2.8h-5.6V0h16.8v2.8h-5.6v16.8H132.9z M146.9,19.5V0h19.5v2.8h-14
	v5.6h11.2v2.8h-11.2v5.6h14v2.8H146.9z M0,61.2V23.6h32.2V29h5.4v16.1h-5.4v5.4H10.7v10.7H0z M10.7,45.1h16.1V29H10.7V45.1z
	 M48.3,61.2v-5.4h-5.4V29h5.4v-5.4h26.8V29h5.4v26.8h-5.4v5.4H48.3z M53.7,55.8h16.1V29H53.7V55.8z M85.9,61.2V23.6h10.7V29h5.4v5.4
	h5.4v5.4h5.4V23.6h10.7v37.6h-10.7V50.4h-5.4v-5.4H102v-5.4h-5.4v21.5H85.9z M139.6,61.2v-5.4h-5.4v-5.4h-5.4V34.3h5.4V29h5.4v-5.4
	h26.8V29H145v5.4h-5.4v16.1h5.4v5.4h10.7V45.1h-5.4v-5.4h16.1v21.5H139.6z M3.3,77.5v-9.8H0v-1.6h9.8v1.6H6.5v9.8H3.3z M11.4,77.5
	V66.1h9.8v1.6h1.6v4.9h-3.3v1.6h1.6v1.6h1.6v1.6h-4.9v-1.6h-1.6v-1.6h-1.6v3.3H11.4z M14.7,72.6h3.3V71h1.6v-3.3h-4.9V72.6z
	 M24.5,77.5v-8.2h1.6v-1.6h1.6v-1.6h4.9v1.6h1.6v1.6h1.6v8.2h-3.3v-3.3h-4.9v3.3H24.5z M27.7,72.6h4.9v-3.3H31v-1.6h-1.6v1.6h-1.6
	V72.6z M37.5,77.5V66.1h3.3v1.6h1.6v1.6h1.6V71h1.6v-4.9h3.3v11.4h-3.3v-3.3h-1.6v-1.6h-1.6V71h-1.6v6.5H37.5z M52.2,77.5v-1.6h-1.6
	v-1.6h3.3v1.6h4.9v-3.3h-6.5V71h-1.6v-3.3h1.6v-1.6h8.2v1.6H62v1.6h-3.3v-1.6h-4.9V71h6.5v1.6H62v3.3h-1.6v1.6H52.2z M66.9,77.5
	v-1.6h-1.6v-1.6h-1.6v-4.9h1.6v-1.6h1.6v-1.6h6.5v1.6h1.6v1.6h-3.3v-1.6h-3.3v1.6h-1.6v4.9h1.6v1.6h3.3v-1.6h3.3v1.6h-1.6v1.6H66.9z
	 M76.7,77.5V66.1h11.4v1.6H80V71h6.5v1.6H80v3.3h8.2v1.6H76.7z M89.7,77.5V66.1H93v1.6h1.6v1.6h1.6V71h1.6v-4.9h3.3v11.4h-3.3v-3.3
	h-1.6v-1.6h-1.6V71H93v6.5H89.7z M102.8,77.5V66.1h8.2v1.6h1.6v1.6h1.6v4.9h-1.6v1.6H111v1.6H102.8z M106.1,75.9h3.3v-1.6h1.6v-4.9
	h-1.6v-1.6h-3.3V75.9z M115.8,77.5V66.1h11.4v1.6h-8.2V71h6.5v1.6h-6.5v3.3h8.2v1.6H115.8z M128.9,77.5V66.1h3.3v1.6h1.6v1.6h1.6V71
	h1.6v-4.9h3.3v11.4h-3.3v-3.3h-1.6v-1.6h-1.6V71h-1.6v6.5H128.9z M145.2,77.5v-1.6h-1.6v-1.6H142v-4.9h1.6v-1.6h1.6v-1.6h6.5v1.6
	h1.6v1.6h-3.3v-1.6h-3.3v1.6h-1.6v4.9h1.6v1.6h3.3v-1.6h3.3v1.6h-1.6v1.6H145.2z M155,77.5V66.1h11.4v1.6h-8.2V71h6.5v1.6h-6.5v3.3
	h8.2v1.6H155z"/>
</svg>
