<?xml version="1.0" encoding="UTF-8" standalone="no"?>
<svg
   version="1.1"
   x="0px"
   y="0px"
   viewBox="0 0 94 99"
   enable-background="new 0 0 100 100"
   xml:space="preserve"
   id="svg3"
   sodipodi:docname="palmier-theme.svg"
   width="94"
   height="99"
   inkscape:version="1.3 (0e150ed, 2023-07-21)"
   xmlns:inkscape="http://www.inkscape.org/namespaces/inkscape"
   xmlns:sodipodi="http://sodipodi.sourceforge.net/DTD/sodipodi-0.dtd"
   xmlns="http://www.w3.org/2000/svg"
   xmlns:svg="http://www.w3.org/2000/svg"><defs
     id="defs3" /><sodipodi:namedview
     id="namedview3"
     pagecolor="#ffffff"
     bordercolor="#000000"
     borderopacity="0"
     inkscape:showpageshadow="2"
     inkscape:pageopacity="0.0"
     inkscape:pagecheckerboard="0"
     inkscape:deskcolor="#d1d1d1"
     inkscape:zoom="1.888"
     inkscape:cx="47.404661"
     inkscape:cy="49.258475"
     inkscape:window-width="1280"
     inkscape:window-height="449"
     inkscape:window-x="0"
     inkscape:window-y="25"
     inkscape:window-maximized="0"
     inkscape:current-layer="svg3" /><path
     d="m 50.103516,32.289062 c 0.127929,0.04248 0.169921,0 0.169921,-0.0835 -0.711914,-1.17041 -2.219726,-3.349121 -5.570312,-4.563476 0.62793,-0.0835 2.303711,0.250488 2.512695,0.125488 -1.799804,-1.128906 -4.311523,-2.972656 -6.405273,-3.432617 2.720703,-0.166992 5.861328,1.046387 7.746094,1.674316 -0.167969,-0.668945 -0.838868,-1.548828 -2.010743,-2.720215 1.88379,-0.294433 5.736329,1.632325 7.411133,2.469239 -0.125976,-1.047852 -0.880859,-2.429688 -1.59082,-3.223633 -0.04297,-0.08398 0.08301,-0.166992 0.333984,-0.166992 0.921875,0.08301 4.145508,0.208496 7.411133,2.301269 -2.178711,-5.148926 -7.24414,-6.530761 -11.764648,-6.071289 -0.167969,-0.25 1.255859,-1.338867 1.548828,-1.464844 l -0.04199,-0.04102 c -2.176758,-0.712403 -5.44336,-0.209473 -7.327149,1.088867 0.418946,-1.004883 1.298828,-1.675293 2.135742,-2.302734 -2.930664,-0.08398 -4.3125,1.549804 -5.233398,1.46582 1.632813,-0.880371 3.642578,-1.716797 4.647461,-2.638672 -0.459961,-0.543945 -1.59082,-0.62793 -1.925781,-0.710938 1.758789,-0.377441 6.279297,-2.010742 6.783203,-3.643066 -0.963867,0.125488 -1.96875,0.208496 -2.763672,-0.08398 0.878906,-0.4604495 1.464844,-0.8359378 1.84082,-1.0878909 1.046875,-0.6289063 2.262695,-1.8847656 3.55957,-2.6796875 C 48.010742,5.8286132 44.787109,6.6254882 42.317383,9.1791991 42.108398,8.2583007 42.77832,8.0883788 42.945312,6.7089843 41.229492,7.5874023 39.72168,8.802246 38.548828,10.351074 38.172851,9.8911132 37.879883,9.1362303 37.669922,7.8813475 c -0.836914,1.421875 -1.423828,4.6040035 -2.135742,5.1069335 0,-2.386719 -1.88379,-6.1123046 -3.892579,-7.4106444 0.209961,1.1728516 0.125977,2.34375 -0.376953,2.387207 -2.595703,-4.3544922 -8.207031,-7.6616211 -13.440429,-6.7001953 0.502929,0.2099609 8.583984,5.0239258 7.160156,5.652832 -1.171875,-0.125 -2.973633,0.084473 -3.976563,0.7128906 2.259766,1.1293945 3.725586,2.0073242 4.4375,2.5952151 1.046875,0.710937 1.967774,1.507324 2.763672,2.302734 0.08203,0.124023 0.08203,0.166992 -0.04297,0.208008 -1.800782,-0.291016 -3.097657,-0.334473 -3.809571,-0.04102 0.125,0.124512 5.316407,3.558594 6.740235,6.11377 -3.976563,-1.047364 -5.903321,-4.02002 -10.466797,-4.396973 1.171875,0.92041 1.423828,1.591797 1.297851,1.841797 -1.674804,-0.08301 -7.368164,0.29248 -8.290039,1.800293 1.298828,0.126465 2.386719,0.670898 2.972657,1.131348 -4.730469,0.626953 -7.9970707,3.432129 -10.0898442,7.577148 2.8466797,-1.088379 5.4423832,-1.381347 8.2480472,-2.679199 -0.711914,0.962402 -1.423828,1.967773 -2.135742,2.972168 3.350585,-0.209473 6.658203,-2.009766 9.168945,-4.187012 -0.167969,0.377442 -0.543946,1.256836 -0.75293,2.555665 1.129883,-0.211426 5.274414,-3.225098 6.65625,-2.806641 -0.08301,0.922363 -0.62793,1.34082 -1.381836,1.842773 0.628907,0.167481 3.34961,-0.627441 3.559571,-0.585449 l 0.878906,0.626953 c -3.892578,-0.0415 -5.820313,0 -10.34082,2.429688 0.711914,0.208008 1.632812,0.375976 2.761718,0.375976 -0.416992,0.125 -1.33789,0.669434 -2.720703,1.632325 -1.380859,0.963867 -2.678711,2.679687 -3.139648,4.22998 l 0.04199,0.08301 c 0.376953,-0.210449 0.962891,-0.377442 1.883789,-0.501953 0.167969,-0.04248 0.419922,-0.04248 0.460938,0.04053 -3.391602,3.769043 -4.81543,10.006836 -2.386719,14.654785 1.213867,-5.40039 2.345703,-7.327148 2.889648,-8.164062 0.166992,-0.294434 0.333985,-0.294434 0.375977,-0.209961 0.126953,0.586914 0.419922,1.381836 0.878906,2.302734 0.25293,0.501465 0.586914,0.922363 0.921875,1.256348 0.459961,-2.512207 0.836914,-4.1875 1.171875,-5.024902 0.376953,-1.171387 0.836914,-2.261231 1.339844,-3.266114 0.08398,-0.123535 0.167969,-0.0835 0.208984,0 0.251953,1.800293 0.62793,3.015137 1.129883,3.601563 l 1.257813,-4.019532 c 0.501953,-1.171386 0.919922,-2.051269 1.297851,-2.636718 0.710938,-1.047364 1.087891,-1.549317 1.170899,-1.508789 0.04297,0.377929 -0.125,2.30371 0.963867,3.434082 0.668945,-2.763672 1.213867,-6.029297 2.636719,-7.243165 -0.04102,0.459473 -0.08301,0.878418 -0.08301,1.339844 -0.125,-0.251953 -0.255371,-0.06689 -0.338379,-0.317871 -0.25293,2.259766 -0.247559,3.917481 -0.290527,5.761231 -0.08301,-0.252442 -0.208985,-0.461914 -0.291993,-0.712403 -0.167968,2.301758 -0.08398,4.354493 -0.04297,6.238282 -0.166016,-0.292969 -0.292969,-0.586426 -0.458985,-0.837403 -0.04297,2.135743 0.08301,4.103028 0.25,5.903321 -0.125,-0.167481 -0.208984,-0.334961 -0.333984,-0.501953 0.04102,2.134277 0.292969,4.103515 0.501953,5.90332 -0.125,-0.166992 -0.208984,-0.334473 -0.334961,-0.501465 0.166992,2.30127 0.501953,4.39502 0.837891,6.278809 -0.292969,-0.292969 -0.544922,-0.62793 -0.837891,-0.961914 0.250977,2.510253 0.753906,4.730468 1.214844,6.697753 -0.166992,-0.208984 -0.376953,-0.418457 -0.544922,-0.585449 0.333984,2.134766 1.716797,6.447266 1.800781,6.656739 -0.209961,-0.209473 -0.418945,-0.376465 -0.62793,-0.587403 0.585938,2.136231 2.302735,6.324219 2.386719,6.449707 -0.335937,-0.29248 -0.670898,-0.54541 -1.004883,-0.83789 1.129883,3.265136 2.637696,6.0708 3.641602,8.498047 -0.291992,-0.251465 -0.62793,-0.544434 -0.961914,-0.794922 1.129883,3.265625 2.594727,6.071289 3.432617,8.456543 -0.292969,-0.250489 -0.586914,-0.500977 -0.921875,-0.75293 1.297852,5.065918 1.926758,9.12793 1.172852,12.142578 0.920898,0 5.358398,0 6.322265,0 -1.297851,-3.769531 -1.507812,-6.950684 -2.135742,-10.760254 -0.334961,0.166992 -0.62793,0.376953 -0.920898,0.584961 -0.836915,-2.763672 -0.668946,-5.357422 -1.465821,-8.289551 -0.292969,0.209961 -0.585938,0.376953 -0.878906,0.586426 -1.046875,-2.763184 -0.962891,-5.316895 -1.799805,-8.289551 -0.293945,0.209473 -0.628906,0.418457 -0.921875,0.626953 -0.125,-0.500977 -0.711914,-4.60498 -1.088867,-6.238281 -0.292969,0.166992 -0.543946,0.378418 -0.793946,0.54541 -0.126953,-0.670898 -0.418945,-4.981934 -0.628906,-6.615234 -0.251953,0.166992 -0.544922,0.335937 -0.794922,0.544433 -0.167968,-2.176758 0.125,-4.3125 -0.04297,-6.656738 -0.334961,0.250977 -0.668946,0.459961 -1.004883,0.668945 0,-0.208984 0.167969,-4.228027 0.08398,-5.986816 -0.209961,0.168457 -0.417969,0.335449 -0.626953,0.502929 0,-0.210449 0.292969,-4.145507 0.292969,-5.904296 -0.168945,0.168457 -0.376953,0.335937 -0.586914,0.502929 0.125976,-1.926269 0.460937,-3.853027 0.586914,-5.904297 -0.292969,0.211426 -0.544922,0.418946 -0.795899,0.585938 0.208985,-1.924316 0.585938,-3.851074 0.795899,-5.986328 -0.209961,0.167969 -0.418945,0.376953 -0.670899,0.585937 0.293946,-1.967285 0.794922,-3.93457 1.088868,-6.068847 -0.209961,0.207519 -0.417969,0.374511 -0.669922,0.584472 0.208984,-0.921875 0.418945,-1.882812 0.669922,-2.805175 l 0.586914,0.45996 c 2.09375,0.21045 3.30664,3.978516 3.515625,5.653321 0.670898,-0.459961 0.753906,-1.29834 0.879883,-1.842285 0.83789,1.925293 0.04199,4.772949 0.585937,6.488769 0.08398,0.209961 0.251953,0.251465 0.376953,0.08447 l 1.339844,-1.758789 c -0.836914,3.517578 -0.376953,5.611328 0.460937,9.084472 0.837891,-0.710937 1.171875,-1.421875 1.506836,-2.931152 0.125,2.974609 0.963868,4.983887 1.25586,7.706543 2.469726,-3.434082 3.349609,-7.202148 1.841797,-11.263672 0.251953,-0.168457 2.136718,1.924316 2.220703,2.008301 0.08398,0 0.08398,0 0.08398,-0.08398 -0.08398,-2.677734 -0.755859,-5.105468 -2.135742,-7.409668 0.04102,-0.0415 0.669922,0.08398 1.839844,0.376465 z"
     id="path1" /><path
     d="m 86.991211,39.533691 c 2.21875,1.046387 4.270508,1.297852 6.488281,2.134278 -1.632812,-3.307618 -4.227539,-5.527344 -7.996094,-5.987305 0.501953,-0.376465 1.339844,-0.79541 2.386719,-0.92041 -0.753906,-1.172364 -5.276367,-1.507324 -6.615234,-1.42334 -0.08399,-0.210449 0.125976,-0.712402 1.046875,-1.46582 -3.600586,0.29248 -5.149414,2.680175 -8.289063,3.474121 1.12793,-2.008301 5.231446,-4.771973 5.358399,-4.813965 -0.585938,-0.250977 -1.591797,-0.250977 -3.056641,0 -0.08398,0 -0.08398,-0.04199 -0.04297,-0.167481 0.629883,-0.627441 1.382813,-1.256835 2.178711,-1.800293 0.584961,-0.459472 1.758789,-1.171875 3.558594,-2.092285 -0.795898,-0.461914 -2.219727,-0.628906 -3.140625,-0.545898 -1.129883,-0.500977 5.275391,-4.3125 5.652344,-4.479492 -4.145508,-0.752442 -8.583008,1.843261 -10.634766,5.316894 -0.417969,-0.04102 -0.460937,-0.96289 -0.333984,-1.924804 -1.591797,1.046386 -3.057617,4.018554 -3.057617,5.902343 -0.585938,-0.376464 -1.045899,-2.930175 -1.715821,-4.062011 -0.166992,1.005859 -0.418945,1.592773 -0.711914,1.96875 -0.921875,-1.214356 -2.092773,-2.175782 -3.474609,-2.888672 0.167969,1.08789 0.669922,1.214355 0.501953,1.925781 -1.967774,-2.009765 -4.481445,-2.638183 -7.327149,-2.092773 1.046875,0.626953 1.967774,1.633301 2.804688,2.134277 0.292969,0.211426 0.796875,0.461914 1.507812,0.837891 -0.668945,0.250976 -1.466796,0.209472 -2.21875,0.0835 0.376954,1.297851 3.97754,2.595215 5.359375,2.889648 -0.251953,0.08301 -1.128906,0.125977 -1.507812,0.543945 0.796875,0.753907 2.386719,1.42334 3.68457,2.136231 -0.753906,0.04004 -1.842773,-1.258301 -4.144531,-1.213867 0.626953,0.500976 1.339844,1.086426 1.674805,1.841308 -1.465821,-1.005371 -4.103516,-1.424316 -5.820313,-0.880371 v 0.08447 c 0.208985,0.08398 1.339844,0.962891 1.214844,1.129883 -3.600586,-0.333985 -7.621094,0.755371 -9.337891,4.815429 2.597657,-1.6333 5.150391,-1.758789 5.862305,-1.800293 0.208984,0 0.292969,0.0415 0.292969,0.125977 -0.585938,0.628906 -1.171875,1.715332 -1.25586,2.552246 1.297852,-0.669433 4.354493,-2.218262 5.862305,-1.92334 -0.921875,0.87793 -1.466797,1.589356 -1.591797,2.134278 1.507813,-0.502442 3.976563,-1.466309 6.155274,-1.340332 -1.674805,0.376953 -3.684571,1.800293 -5.107422,2.722168 0.166992,0.125976 1.506836,-0.166993 2.008789,-0.08399 -2.638672,0.962403 -3.851563,2.678711 -4.438477,3.600098 0,0.08398 0.04199,0.08398 0.125977,0.08398 0.96289,-0.250976 1.464844,-0.334472 1.506836,-0.29248 -1.088867,1.799805 -1.673828,3.76709 -1.715821,5.859863 0,0.04346 0,0.08398 0.04199,0.04346 0.08301,-0.04346 1.59082,-1.676758 1.758789,-1.549316 -1.173828,3.223632 -0.503907,6.196777 1.464844,8.91748 0.25,-2.135254 0.921875,-3.768555 1.003906,-6.112793 0.251953,1.213867 0.544922,1.758789 1.21582,2.344238 0.668945,-2.763671 1.00293,-4.437988 0.375977,-7.243164 l 1.045898,1.423828 c 0.126953,0.125977 0.25293,0.0835 0.293945,-0.0835 0.418946,-1.340332 -0.166992,-3.600097 0.459961,-5.15039 0.125977,0.460937 0.167969,1.089355 0.710938,1.46582 0.167969,-1.339355 1.130859,-4.3125 2.764648,-4.479492 l 0.501953,-0.376465 c 0.166993,0.752441 0.37793,1.505859 0.50293,2.21875 -0.167969,-0.125977 -0.335937,-0.292969 -0.544922,-0.459961 0.292969,1.71582 0.669922,3.26416 0.879883,4.814453 -0.166992,-0.16748 -0.334961,-0.293457 -0.543945,-0.460449 0.208984,1.672852 0.500976,3.223633 0.668945,4.771484 -0.208984,-0.166992 -0.417969,-0.333984 -0.62793,-0.501953 0.08398,1.674317 0.335938,3.181641 0.459961,4.688965 -0.166992,-0.125488 -0.333984,-0.250488 -0.500976,-0.376465 0,1.381836 0.250976,4.521973 0.250976,4.647461 -0.166992,-0.125488 -0.334961,-0.250488 -0.50293,-0.376465 -0.04199,1.422852 0.08398,4.605469 0.08398,4.773438 -0.293945,-0.167969 -0.544922,-0.334961 -0.794922,-0.54541 -0.126953,1.884765 0.08203,3.559082 -0.04297,5.276367 -0.208984,-0.168457 -0.417969,-0.292969 -0.626953,-0.461426 -0.167969,1.297852 -0.419922,4.773926 -0.503906,5.275879 -0.208985,-0.125977 -0.417969,-0.293457 -0.626953,-0.418945 -0.292969,1.299316 -0.754883,4.520508 -0.837891,4.940918 -0.251953,-0.167481 -0.501953,-0.335938 -0.75293,-0.503418 -0.670898,2.345703 -0.626953,4.396484 -1.423828,6.574707 -0.250976,-0.125977 -0.459961,-0.294434 -0.71289,-0.461426 -0.626953,2.344727 -0.501953,4.395996 -1.128907,6.57373 -0.251953,-0.166992 -0.503906,-0.294433 -0.754882,-0.461425 -0.500977,3.015136 -0.668946,5.569336 -1.674805,8.541992 0.712891,0 4.271484,0 4.982422,0 -0.585938,-2.386719 -0.08399,-5.611328 0.921875,-9.629395 -0.250977,0.208985 -0.501953,0.418457 -0.712891,0.627442 0.670899,-1.925782 1.84375,-4.187012 2.72168,-6.740235 -0.25,0.209473 -0.501953,0.417969 -0.751953,0.62793 0.751953,-1.925781 2.007812,-4.145996 2.888672,-6.740723 -0.293946,0.209473 -0.545899,0.417969 -0.795899,0.626465 0.04102,-0.08301 1.422852,-3.390137 1.882813,-5.106445 -0.166992,0.166992 -0.333985,0.333984 -0.501953,0.500976 0.08398,-0.166992 1.172851,-3.599609 1.423828,-5.316894 -0.125,0.168457 -0.291992,0.335449 -0.417969,0.502441 0.333984,-1.59082 0.75293,-3.349121 0.961914,-5.316406 -0.208984,0.250488 -0.459961,0.501953 -0.668945,0.75293 0.25,-1.507324 0.542969,-3.139649 0.668945,-4.981934 -0.08301,0.125 -0.166992,0.250977 -0.291992,0.376465 0.208984,-1.382324 0.375,-2.972168 0.417969,-4.689453 -0.08399,0.125976 -0.167969,0.293945 -0.251953,0.417969 0.125976,-1.420899 0.251953,-2.971192 0.208984,-4.6875 -0.125,0.209961 -0.25,0.460937 -0.375,0.669922 0.04102,-1.466309 0.08301,-3.140625 -0.04297,-4.941407 -0.08398,0.168457 -0.166015,0.377442 -0.25,0.544434 -0.04297,-1.466309 -0.04297,-3.098145 -0.250976,-4.898438 -0.08398,0.208985 -0.125977,0.375977 -0.209961,0.58545 -0.04199,-0.333985 -0.04199,-0.710938 -0.08399,-1.045899 1.129883,0.962402 1.547852,3.558594 2.09375,5.736817 0.879883,-0.879395 0.710938,-2.428711 0.75293,-2.723633 0.08301,-0.04004 0.37793,0.378418 0.920898,1.214844 0.292969,0.461914 0.669922,1.171875 1.047852,2.052734 l 1.003906,3.223144 c 0.375977,-0.500976 0.670899,-1.422851 0.879883,-2.846679 0.04199,-0.08398 0.08399,-0.08398 0.166992,0 0.417969,0.752929 0.75293,1.632324 1.088868,2.596191 0.250976,0.669434 0.543945,1.967774 0.878906,3.935059 0.292969,-0.250977 0.542969,-0.585449 0.795898,-0.963867 0.334961,-0.753418 0.585938,-1.380372 0.668946,-1.841797 0.04199,-0.04102 0.167968,-0.04102 0.292968,0.168945 0.418946,0.669434 1.339844,2.176758 2.262696,6.489258 1.966797,-3.685547 0.834961,-8.625489 -1.84375,-11.598145 0.04297,-0.125976 0.210937,-0.08398 0.334961,-0.08398 0.710937,0.126465 1.21582,0.250976 1.508789,0.417969 l 0.04102,-0.0835 c -0.376953,-1.214356 -1.422851,-2.553223 -2.512695,-3.349122 -1.089844,-0.752929 -1.799805,-1.171386 -2.133789,-1.298339 0.87793,0 1.589844,-0.124024 2.176758,-0.292481 -3.559571,-1.925781 -5.108399,-1.967285 -8.207032,-1.925781 l 0.710938,-0.501953 c 0.166992,0 2.303711,0.585937 2.805664,0.460449 -0.584961,-0.376953 -1.045898,-0.710938 -1.087891,-1.46582 1.087891,-0.292481 4.395508,2.052734 5.275391,2.219726 -0.125,-1.004883 -0.459961,-1.716308 -0.585938,-2.010254 1.967774,1.716797 4.604493,3.182129 7.28418,3.349121 -0.585937,-0.794922 -1.129883,-1.591308 -1.673828,-2.385254 z"
     id="path2" /></svg>
