<svg width="25" height="20" viewBox="0 0 25 20" fill="none" xmlns="http://www.w3.org/2000/svg">
<path d="M24.4889 11.6633H0.508157C0.508157 11.5634 0.408237 10.764 0.907836 10.1645C1.50735 9.46507 2.40663 9.46507 2.50655 9.46507C3.10607 9.46507 3.60567 9.46507 4.20519 9.46507C4.70479 7.26684 5.30431 5.36836 5.8039 3.96949C6.3035 2.57061 6.8031 1.17173 8.00214 0.672135C8.20198 0.572215 8.70158 0.372375 9.40101 0.372375C10.1005 0.372375 10.7 0.772055 10.8998 0.871974C11.2995 1.07181 11.3994 1.27165 11.7991 1.37157C12.0988 1.47149 12.3986 1.57141 12.5984 1.57141C12.7983 1.57141 13.098 1.47149 13.3978 1.37157C13.7975 1.17173 13.9973 1.07181 14.2971 0.871974C14.4969 0.772055 15.0964 0.372375 15.7959 0.372375C16.4953 0.372375 16.9949 0.572215 17.1948 0.672135C18.3938 1.27165 18.8934 2.67053 19.393 3.96949C19.8926 5.46828 20.4921 7.26684 20.9917 9.46507C21.5912 9.46507 22.0908 9.46507 22.6903 9.46507C22.7903 9.46507 23.5896 9.46507 24.1891 10.1645C24.5888 10.8639 24.4889 11.5634 24.4889 11.6633ZM17.1948 12.7624C15.3962 12.8623 13.7975 13.0622 12.4985 13.3619C11.1996 13.0622 9.60085 12.8623 7.8023 12.7624C5.90382 12.6625 4.20519 12.8623 2.90623 13.0622C2.90623 13.4619 2.90623 13.8615 2.90623 14.2612C3.10607 14.3611 3.30591 14.561 3.50575 14.7608C3.90543 15.2604 3.90543 15.6601 4.00535 16.0598C4.20519 17.1589 4.30511 17.9583 4.70479 18.4579C5.30431 19.3571 6.70318 19.557 7.40262 19.557C8.10206 19.6569 9.20118 19.7568 10.2004 19.0574C11.6992 17.9583 12.0988 15.1605 12.0988 14.8607C12.0988 14.8607 12.0988 14.6609 12.1988 14.4611C12.1988 14.4611 12.2987 14.3611 12.3986 14.2612C12.4985 14.2612 12.5984 14.1613 12.5984 14.1613C12.6984 14.1613 12.6984 14.1613 12.7983 14.2612C12.8982 14.3611 12.8982 14.3611 12.9981 14.4611C13.098 14.6609 13.098 14.7608 13.098 14.8607C13.098 15.1605 13.4977 17.9583 14.9965 19.0574C15.8958 19.7568 16.9949 19.6569 17.7943 19.557C18.4937 19.4571 19.8926 19.3571 20.4921 18.4579C20.8918 17.9583 20.9917 17.1589 21.1915 16.0598C21.2915 15.76 21.2915 15.2604 21.6911 14.7608C21.891 14.4611 22.1907 14.3611 22.2907 14.2612C22.2907 13.8615 22.2907 13.4619 22.2907 13.0622C20.7919 12.8623 19.0932 12.6625 17.1948 12.7624Z" fill="white"/>
</svg>
