<svg width="25" height="20" viewBox="0 0 25 20" fill="none" xmlns="http://www.w3.org/2000/svg">
<path id="Vector" d="M6.7 19.65V19.45C6.7 16.45 7 13.65 7.7 11.15C8 10.25 8.5 9.55 9.2 8.95C9.7 8.55 10.2 8.35 10.8 8.15C9.4 7.55 8.5 6.05 8.5 4.45C8.5 2.15 10.3 0.25 12.5 0.25C14.7 0.25 16.5 2.15 16.5 4.45C16.5 6.05 15.6 7.55 14.3 8.25C14.9 8.35 15.4 8.65 15.9 9.05C16.6 9.65 17.1 10.35 17.3 11.25C18 13.65 18.3 16.55 18.3 19.55V19.75H6.7V19.65ZM6.8 10.55C6.4 10.35 5.9 10.15 5.4 10.15C6.6 9.85 7.6 8.65 7.6 7.25C7.6 5.55 6.3 4.25 4.7 4.25C3.1 4.25 1.8 5.55 1.8 7.25C1.8 8.65 2.7 9.85 4 10.15C2.7 10.15 1.6 11.05 1.2 12.35C0.8 14.15 0.5 16.25 0.5 18.55H5.5C5.6 15.85 5.9 13.35 6.5 11.15C6.6 10.95 6.7 10.75 6.8 10.55ZM19.4 18.55H24.5C24.5 16.25 24.2 14.15 23.7 12.35C23.3 11.05 22.2 10.15 20.9 10.15C22.1 9.85 23.1 8.65 23.1 7.25C23.1 5.55 21.8 4.25 20.2 4.25C18.6 4.25 17.3 5.55 17.3 7.25C17.3 8.65 18.2 9.85 19.5 10.15C19 10.15 18.5 10.25 18.1 10.55C18.2 10.75 18.2 10.95 18.3 11.15C18.9 13.35 19.3 15.95 19.4 18.55Z" fill="white"/>
</svg>
