<svg width="21" height="20" viewBox="0 0 21 20" fill="none" xmlns="http://www.w3.org/2000/svg">
<path id="Vector" d="M20.5 11.3467V8.65333C19.1242 8.16417 18.255 8.02667 17.8175 6.97083C17.3783 5.91167 17.9008 5.19167 18.5233 3.88083L16.6192 1.97667C15.3183 2.595 14.5917 3.1225 13.53 2.6825C12.4725 2.24417 12.3333 1.36917 11.8467 0H9.15333C8.66833 1.3625 8.52917 2.24333 7.47083 2.6825C6.41167 3.1225 5.69333 2.60083 4.38083 1.97667L2.47667 3.88083C3.0975 5.1875 3.6225 5.90917 3.1825 6.97C2.74333 8.02917 1.8625 8.16833 0.5 8.65333V11.3467C1.86 11.83 2.74333 11.9708 3.1825 13.0292C3.62417 14.0975 3.0875 14.8342 2.47667 16.1183L4.38083 18.0233C5.6825 17.4042 6.40917 16.8775 7.47 17.3175C8.52833 17.7558 8.6675 18.6333 9.15333 20H11.8467C12.3317 18.6367 12.4717 17.7583 13.5358 17.315H13.5367C14.5883 16.8783 15.3033 17.3992 16.6183 18.0242L18.5225 16.1192C17.9025 14.8167 17.3767 14.0917 17.8158 13.0308C18.255 11.9717 19.1392 11.8308 20.5 11.3467ZM10.5 13.3333C8.65917 13.3333 7.16667 11.8408 7.16667 10C7.16667 8.15917 8.65917 6.66667 10.5 6.66667C12.3408 6.66667 13.8333 8.15917 13.8333 10C13.8333 11.8408 12.3408 13.3333 10.5 13.3333Z" fill="white"/>
</svg>
