<svg width="66" height="66" viewBox="0 0 66 66" fill="none" xmlns="http://www.w3.org/2000/svg">
<g filter="url(#filter0_d_1_82)">
<path d="M29.7472 35.1508C29.7581 36.3468 28.7939 37.326 27.5957 37.3336C26.3986 37.3434 25.4236 36.3803 25.4171 35.1844C25.4063 33.9874 26.3694 33.0124 27.5643 33.0005C28.7625 32.9929 29.7407 33.9571 29.7472 35.1508ZM28.6877 30.8329C27.4917 30.8416 26.5124 29.8796 26.5048 28.6804C26.4951 27.4856 27.4549 26.5095 28.6542 26.502C29.848 26.4911 30.8295 27.452 30.8338 28.649C30.8468 29.8482 29.8805 30.8221 28.6877 30.8329ZM37.3339 26.4846C37.3382 27.6784 36.3795 28.6598 35.1835 28.6674C33.9853 28.6783 33.0081 27.7152 33.0005 26.5193C32.9886 25.3212 33.9517 24.3462 35.151 24.3365C36.3437 24.33 37.3231 25.2909 37.3339 26.4846ZM24.3338 43.6513C29.3031 44.0629 27.5231 38.7852 32.1209 38.7365L34.112 40.3982C34.6082 46.3963 27.2707 47.7341 24.3338 43.6513ZM39.571 35.9438C41.1169 33.5183 45.9042 25.384 45.9042 25.384C46.2867 24.7091 45.4395 24.005 44.848 24.5033C44.848 24.5033 37.7282 30.6931 35.6276 32.655C33.968 34.2062 33.9604 34.9147 33.423 37.4723L35.2431 38.9889C37.6557 37.9977 38.3501 37.8623 39.571 35.9438ZM25.897 41.15C23.6394 39.1784 22.192 36.298 22.1671 33.0829C22.1194 27.114 26.9403 22.2176 32.9139 22.1689C37.0717 22.1461 39.9328 24.2325 39.9513 25.9029L41.7529 24.3257C40.6587 21.9175 37.2223 19.9438 32.8954 20.0012C25.7205 20.0608 19.9441 25.9224 20.0004 33.1002C20.0253 36.2547 21.1737 39.134 23.0587 41.371C24.0965 41.904 25.3586 41.7274 25.897 41.15ZM39.7606 39.0853C40.9079 41.2193 38.297 42.7359 35.9201 43.4097C35.5908 44.3977 35.0502 45.274 34.4316 45.9132C40.1246 45.2729 44.2478 41.2507 41.2199 37.3672C40.7226 38.1092 40.2481 38.6639 39.7606 39.0853Z" fill="white"/>
<rect x="11" y="11" width="44" height="44" rx="22" stroke="white" stroke-width="2"/>
</g>
<defs>
<filter id="filter0_d_1_82" x="0" y="0" width="66" height="66" filterUnits="userSpaceOnUse" color-interpolation-filters="sRGB">
<feFlood flood-opacity="0" result="BackgroundImageFix"/>
<feColorMatrix in="SourceAlpha" type="matrix" values="0 0 0 0 0 0 0 0 0 0 0 0 0 0 0 0 0 0 127 0" result="hardAlpha"/>
<feOffset/>
<feGaussianBlur stdDeviation="5"/>
<feColorMatrix type="matrix" values="0 0 0 0 1 0 0 0 0 0 0 0 0 0 1 0 0 0 1 0"/>
<feBlend mode="normal" in2="BackgroundImageFix" result="effect1_dropShadow_1_82"/>
<feBlend mode="normal" in="SourceGraphic" in2="effect1_dropShadow_1_82" result="shape"/>
</filter>
</defs>
</svg>
