<svg width="24" height="23" viewBox="0 0 24 23" fill="none" xmlns="http://www.w3.org/2000/svg">
<path fill-rule="evenodd" clip-rule="evenodd" d="M11.9657 0C5.62548 0 0.5 5.27083 0.5 11.7916C0.5 17.0039 3.78407 21.4161 8.33995 22.9777C8.90955 23.0951 9.11819 22.724 9.11819 22.4118C9.11819 22.1385 9.09942 21.2014 9.09942 20.2251C5.90993 20.9281 5.24574 18.8195 5.24574 18.8195C4.73317 17.4529 3.9737 17.1017 3.9737 17.1017C2.92979 16.3794 4.04974 16.3794 4.04974 16.3794C5.20772 16.4575 5.81535 17.5897 5.81535 17.5897C6.84026 19.3856 8.4918 18.8782 9.15621 18.5658C9.25103 17.8044 9.55496 17.2773 9.87766 16.9845C7.33382 16.7112 4.65737 15.6961 4.65737 11.1667C4.65737 9.87826 5.11267 8.82409 5.83412 8.00424C5.7203 7.71147 5.32155 6.50085 5.94818 4.88055C5.94818 4.88055 6.9163 4.56814 9.09918 6.09093C10.0338 5.83282 10.9976 5.70151 11.9657 5.70041C12.9338 5.70041 13.9207 5.83721 14.8321 6.09093C17.0152 4.56814 17.9833 4.88055 17.9833 4.88055C18.6099 6.50085 18.2109 7.71147 18.0971 8.00424C18.8376 8.82409 19.2741 9.87826 19.2741 11.1667C19.2741 15.6961 16.5977 16.6915 14.0348 16.9845C14.4525 17.3554 14.813 18.0581 14.813 19.171C14.813 20.7522 14.7943 22.0213 14.7943 22.4116C14.7943 22.724 15.0031 23.0951 15.5725 22.978C20.1284 21.4159 23.4125 17.0039 23.4125 11.7916C23.4312 5.27083 18.287 0 11.9657 0Z" fill="white"/>
</svg>
